<svg xmlns="http://www.w3.org/2000/svg" viewBox="0 0 48 48" width="48" height="48">
<rect x="0" y="0" width="48" height="48" rx="12" fill="#25D366"></rect>
<path fill="#fff" d="M24 13c-6.1 0-11 4.9-11 11 0 1.9.5 3.8 1.4 5.4L12.6 35l5.8-1.5c1.6.8 3.3 1.2 5.1 1.2h.5c6.1 0 11-4.9 11-11S30.1 13 24 13z"></path><path fill="#25D366" d="M30.6 26.9c-.3-.2-1.9-.9-2.2-1-.3-.1-.5-.2-.8.2-.2.3-.8 1-1 1.2-.2.2-.4.2-.7.1-.3-.2-1.4-.5-2.6-1.6-1-.9-1.6-1.9-1.8-2.2-.2-.3 0-.5.1-.7.1-.1.3-.4.5-.6.1-.2.2-.3.3-.5.1-.2 0-.4 0-.6-.1-.2-.8-1.9-1.1-2.6-.3-.7-.6-.6-.8-.6h-.7c-.2 0-.6.1-.9.4-.3.3-1.2 1.2-1.2 2.8 0 1.7 1.2 3.3 1.4 3.5.2.2 2.4 3.7 5.9 5.2.8.4 1.5.6 2 .7.8.3 1.6.2 2.2.1.7-.1 2.1-.8 2.4-1.7.3-.8.3-1.5.2-1.7-.1-.1-.3-.2-.7-.4z"></path>
</svg>